<svg xmlns="http://www.w3.org/2000/svg" xmlns:svg="http://www.w3.org/2000/svg" id="svg2" width="212.054" height="64.531" version="1.1"><metadata id="metadata7"/><g id="layer1" transform="translate(-126,-555.36218)"><g id="g3616" fill="#ad7fa8" transform="translate(25.828161,113.33204)"><path id="path2816" fill="#5c3566" stroke="none" d="m 158,449.36218 35,-6 10,60 -52,-6 7,-48 z"/><path id="path3678" fill="#2e3436" stroke="none" d="m 198,499.36218 -35,6 -10,-60 52,6 -7,48 z"/><path id="path2818" fill="#ad7fa8" stroke="none" d="m 196,497.36218 -35,6 -10,-60 52,6 -7,48 z"/></g><g id="g3612" transform="matrix(0.93477782,0,0,0.93255433,82.729523,148.55787)"><path id="path3594" fill="#4e9a06" stroke="none" d="m 259,446.36218 -44,-8 18,64 38,-12 -12,-44 z"/><path id="path3682" fill="#2e3436" stroke="none" d="m 229.13955,448.50683 44,-8 -18,64 -38,-12 12,-44 z"/><path id="path3592" fill="#8ae234" stroke="none" d="m 227,446.36218 44,-8 -18,64 -38,-12 12,-44 z"/></g><g id="g3604" transform="translate(-243,107)"><path id="path3602" fill="#a40000" stroke="none" d="m 369,510.36218 47,-8 -7,-45 -32,-9 -8,62 z"/><path id="path3676" fill="#2e3436" stroke="none" d="m 418,450.36218 -47,8 7,45 32,9 8,-62 z"/><path id="path3600" fill="#ef2929" stroke="none" d="m 416,448.36218 -47,8 7,45 32,9 8,-62 z"/></g><g id="g3640" transform="translate(10.00388,122.03982)"><text id="text3636" x="128" y="477.362" fill="#2e3436" fill-opacity="1" stroke="none" font-family="FreeSans" font-size="36" font-stretch="normal" font-style="normal" font-variant="normal" font-weight="bold" text-anchor="start" writing-mode="lr-tb" xml:space="preserve" style="text-align:start;line-height:125%;-inkscape-font-specification:FreeSans Bold"><tspan id="tspan3638" x="128" y="477.362">S</tspan></text><text font-stretch="normal" style="text-align:start;line-height:125%;-inkscape-font-specification:FreeSans Bold" id="text3620" x="126" y="475.362" fill="#eeeeec" fill-opacity="1" stroke="none" font-family="FreeSans" font-size="36" font-style="normal" font-variant="normal" font-weight="bold" text-anchor="start" writing-mode="lr-tb" xml:space="preserve"><tspan id="tspan3622" x="126" y="475.362">S</tspan></text></g><g id="g3658" transform="translate(-18.976724,130.03982)"><text id="text3646" x="209" y="469.362" fill="#2e3436" fill-opacity="1" stroke="none" font-family="FreeSans" font-size="36" font-stretch="normal" font-style="normal" font-variant="normal" font-weight="bold" text-anchor="start" writing-mode="lr-tb" xml:space="preserve" style="text-align:start;line-height:125%;-inkscape-font-specification:FreeSans Bold"><tspan id="tspan3648" x="209" y="469.362">U</tspan></text><text font-stretch="normal" style="text-align:start;line-height:125%;-inkscape-font-specification:FreeSans Bold" id="text3624" x="207" y="467.362" fill="#eeeeec" fill-opacity="1" stroke="none" font-family="FreeSans" font-size="36" font-style="normal" font-variant="normal" font-weight="bold" text-anchor="start" writing-mode="lr-tb" xml:space="preserve"><tspan id="tspan3626" x="207" y="467.362">U</tspan></text></g><g id="g3705" transform="matrix(1,0,0,-1,-135.82266,1066.255)"><path id="path3707" fill="#204a87" stroke="none" d="m 369,510.36218 47,-8 -7,-45 -32,-9 -8,62 z"/><path id="path3709" fill="#2e3436" stroke="none" d="m 418,446.36218 -47,8 7,45 32,9 8,-62 z"/><path id="path3711" fill="#729fcf" stroke="none" d="m 416,448.36218 -47,8 7,45 32,9 8,-62 z"/></g><g id="g3664" transform="translate(-34.633045,114.86782)"><text id="text3650" x="288" y="485.362" fill="#2e3436" fill-opacity="1" stroke="none" font-family="FreeSans" font-size="36" font-stretch="normal" font-style="normal" font-variant="normal" font-weight="bold" text-anchor="start" writing-mode="lr-tb" xml:space="preserve" style="text-align:start;line-height:125%;-inkscape-font-specification:FreeSans Bold"><tspan id="tspan3652" x="288" y="485.362">I</tspan></text><text font-stretch="normal" style="text-align:start;line-height:125%;-inkscape-font-specification:FreeSans Bold" id="text3628" x="286" y="483.362" fill="#eeeeec" fill-opacity="1" stroke="none" font-family="FreeSans" font-size="36" font-style="normal" font-variant="normal" font-weight="bold" text-anchor="start" writing-mode="lr-tb" xml:space="preserve"><tspan id="tspan3630" x="286" y="483.362">I</tspan></text></g><g id="g3670" transform="translate(-60.957327,123.86782)"><text id="text3654" x="361" y="476.362" fill="#2e3436" fill-opacity="1" stroke="none" font-family="FreeSans" font-size="36" font-stretch="normal" font-style="normal" font-variant="normal" font-weight="bold" text-anchor="start" writing-mode="lr-tb" xml:space="preserve" style="text-align:start;line-height:125%;-inkscape-font-specification:FreeSans Bold"><tspan id="tspan3656" x="361" y="476.362">T</tspan></text><text font-stretch="normal" style="text-align:start;line-height:125%;-inkscape-font-specification:FreeSans Bold" id="text3632" x="359" y="474.362" fill="#eeeeec" fill-opacity="1" stroke="none" font-family="FreeSans" font-size="36" font-style="normal" font-variant="normal" font-weight="bold" text-anchor="start" writing-mode="lr-tb" xml:space="preserve"><tspan id="tspan3634" x="359" y="474.362">T</tspan></text></g></g></svg>